<?xml version="1.0" encoding="UTF-8"?>
<svg width="500" height="500" viewBox="0 0 500 500" fill="none" xmlns="http://www.w3.org/2000/svg">
  <!-- Base Paper -->
  <rect x="100" y="50" width="300" height="400" rx="8" fill="white" stroke="#E5E7EB" stroke-width="2"/>
  <!-- Paper Shadow -->
  <rect x="110" y="60" width="300" height="400" rx="8" fill="#F9FAFB" stroke="#E5E7EB" stroke-width="2"/>
  
  <!-- Paper Content -->
  <!-- Header -->
  <rect x="130" y="80" width="260" height="40" rx="4" fill="#F3F4F6"/>
  <rect x="150" y="95" width="160" height="10" rx="2" fill="#D1D5DB"/>
  <rect x="320" y="95" width="50" height="10" rx="2" fill="#D1D5DB"/>
  
  <!-- Question 1 -->
  <circle cx="140" cy="140" r="6" fill="#EF4444"/>
  <rect x="155" y="135" width="220" height="10" rx="2" fill="#9CA3AF"/>
  <rect x="155" y="155" width="190" height="8" rx="2" fill="#D1D5DB"/>
  
  <!-- Question 2 -->
  <circle cx="140" cy="190" r="6" fill="#EF4444"/>
  <rect x="155" y="185" width="220" height="10" rx="2" fill="#9CA3AF"/>
  <rect x="155" y="205" width="190" height="8" rx="2" fill="#D1D5DB"/>
  
  <!-- Question 3 -->
  <circle cx="140" cy="240" r="6" fill="#EF4444"/>
  <rect x="155" y="235" width="220" height="10" rx="2" fill="#9CA3AF"/>
  <rect x="155" y="255" width="150" height="8" rx="2" fill="#D1D5DB"/>
  <rect x="155" y="270" width="170" height="8" rx="2" fill="#D1D5DB"/>
  
  <!-- Question 4 -->
  <circle cx="140" cy="300" r="6" fill="#EF4444"/>
  <rect x="155" y="295" width="220" height="10" rx="2" fill="#9CA3AF"/>
  
  <!-- Multiple Choice -->
  <rect x="160" y="315" width="12" height="12" rx="2" stroke="#9CA3AF" stroke-width="1.5" fill="white"/>
  <rect x="180" y="315" width="100" height="8" rx="2" fill="#D1D5DB"/>
  
  <rect x="160" y="335" width="12" height="12" rx="2" stroke="#9CA3AF" stroke-width="1.5" fill="white"/>
  <rect x="180" y="335" width="80" height="8" rx="2" fill="#D1D5DB"/>
  
  <rect x="160" y="355" width="12" height="12" rx="2" stroke="#EF4444" stroke-width="1.5" fill="white"/>
  <rect x="180" y="355" width="90" height="8" rx="2" fill="#D1D5DB"/>
  <path d="M163 355 L169 361 L175 349" stroke="#EF4444" stroke-width="2" stroke-linecap="round" stroke-linejoin="round"/>
  
  <!-- Footer -->
  <rect x="130" y="390" width="260" height="20" rx="4" fill="#F3F4F6"/>
  <rect x="330" y="395" width="40" height="10" rx="2" fill="#D1D5DB"/>
</svg>
